<svg xmlns="http://www.w3.org/2000/svg" width="240" height="64" viewBox="0 0 240 64" fill="none">
  <g transform="translate(8 8)">
    <rect width="48" height="48" rx="11" fill="#f4d977"/>
    <g transform="translate(4 4) scale(0.4)">
      <path d="M30 16C28.5 9 24.5 7 22 9C20 11 20.5 14.5 25 19C19 24 15 33 15 48C15 71 28 88 50 88C72 88 85 71 85 48C85 33 81 24 75 19C79.5 14.5 80 11 78 9C75.5 7 71.5 9 70 16C64 13 57 12 50 12C43 12 36 13 30 16Z" fill="#3a342e" stroke="#1f1a14" stroke-width="2.5" stroke-linejoin="round"/>
      <path d="M37 48C37 45 41 44 50 44C59 44 63 45 63 48C66 60 65 76 60 84C56 87 52 88 50 88C48 88 44 87 40 84C35 76 34 60 37 48Z" fill="#f5ead0" stroke="#1f1a14" stroke-width="1.6" stroke-linejoin="round"/>
      <circle cx="38" cy="42" r="8.5" fill="#f5ead0" stroke="#1f1a14" stroke-width="2"/>
      <circle cx="62" cy="42" r="8.5" fill="#f5ead0" stroke="#1f1a14" stroke-width="2"/>
      <circle cx="38" cy="42" r="3.5" fill="#1a1612"/>
      <circle cx="62" cy="42" r="3.5" fill="#1a1612"/>
      <ellipse cx="50" cy="50" rx="2.2" ry="2.6" fill="#1f1a14"/>
      <ellipse cx="42" cy="89" rx="5" ry="2.6" fill="#3a342e" stroke="#1f1a14" stroke-width="1.6"/>
      <ellipse cx="58" cy="89" rx="5" ry="2.6" fill="#3a342e" stroke="#1f1a14" stroke-width="1.6"/>
    </g>
  </g>
  <text x="68" y="40" font-family="-apple-system, BlinkMacSystemFont, 'Segoe UI', sans-serif" font-size="28" font-weight="700" fill="#1f1a14" letter-spacing="-0.5">Huddle</text>
</svg>
